<svg width="397" height="421" viewBox="0 0 397 421" fill="none" xmlns="http://www.w3.org/2000/svg">
<path d="M34.5205 63.6978L34.5278 63.6903L34.5348 63.6826C35.3164 62.8188 36.7453 62.7907 37.6611 63.7016L97.0547 123L97.0554 123.001C97.8488 123.79 97.8488 125.223 97.0554 126.012L97.0553 126.012L97.0482 126.019C91.75 131.509 86.892 137.549 82.6952 144.029C82.0671 144.914 80.8178 145.27 79.7364 144.646L8.254 100.452C8.25335 100.451 8.2527 100.451 8.25205 100.451C7.27131 99.8282 6.90828 98.4913 7.53305 97.4157C15.3221 85.3041 24.4276 73.9556 34.5205 63.6978Z" stroke="#191B87"/>
<path d="M138.904 95.8189C131.621 98.7827 124.665 102.297 118.037 106.582C117.048 107.207 115.712 106.928 115.098 105.968L115.098 105.968L115.091 105.957L93.7525 74.4477L93.7475 74.4402L93.7422 74.433C92.7144 73.0272 90.7606 72.6176 89.3101 73.6634C84.5664 76.9557 79.9355 80.5754 75.5274 84.3024L75.522 84.307L75.5167 84.3117C74.6279 85.1074 73.293 85.0259 72.4823 84.131C72.482 84.1307 72.4817 84.1303 72.4813 84.1299L46.6356 55.2482L46.6338 55.2462C45.8348 54.3631 45.9184 52.9319 46.8135 52.1275C57.7857 42.6326 69.6358 34.3378 82.2547 27.2431L82.2606 27.2397C83.3216 26.6241 84.6568 27.06 85.1925 28.1259L85.1962 28.1332L85.2001 28.1403L102.465 59.8619C103.267 61.4472 105.23 61.9325 106.76 61.1715L106.76 61.1716L106.767 61.1678C112.032 58.4403 117.296 56.0401 122.781 53.858L122.793 53.8532L122.804 53.8478C123.944 53.3248 125.194 53.9215 125.651 55.0018L140.167 93.068L140.17 93.0756L140.173 93.083C140.599 94.0992 140.01 95.3595 138.904 95.8189ZM138.904 95.8189C138.905 95.8187 138.905 95.8186 138.906 95.8184L139.094 96.2815M138.904 95.8189C138.904 95.8192 138.903 95.8194 138.903 95.8196L139.094 96.2815M139.094 96.2815C131.835 99.2356 124.906 102.737 118.306 107.004L140.634 92.8899C141.184 94.2028 140.414 95.7345 139.094 96.2815Z" stroke="#191B87"/>
<path d="M119.425 315.373L119.422 315.378L74.9895 386.489C74.989 386.489 74.9885 386.49 74.9881 386.491C74.3629 387.465 73.0156 387.83 71.9304 387.206C59.7543 379.458 48.3454 370.4 38.0331 360.361L38.0256 360.353L38.0178 360.346C37.1509 359.57 37.1225 358.154 38.0368 357.244C38.0368 357.244 38.0369 357.244 38.0369 357.244L97.6505 298.164L97.6512 298.164C98.446 297.373 99.8907 297.373 100.686 298.164L100.686 298.164L100.693 298.171C106.212 303.441 112.283 308.273 118.798 312.448C119.695 313.078 120.034 314.421 119.425 315.373Z" stroke="#191B87"/>
<path d="M67.5647 255.276L67.5572 255.279L29.2887 269.718C28.2143 270.168 27.5923 271.409 28.1337 272.666L28.1386 272.677L28.1384 272.677C30.3321 278.132 32.7448 283.369 35.4868 288.605L35.4906 288.613L35.4906 288.613C36.2579 290.139 35.7663 292.094 34.1741 292.892L2.28408 310.065L2.27694 310.069L2.26968 310.072C1.196 310.606 0.762383 311.932 1.37843 312.982L1.38188 312.988L1.38184 312.988C8.51409 325.54 16.8529 337.328 26.3982 348.242C27.2077 349.133 28.651 349.217 29.5408 348.42L29.5421 348.419L58.578 322.6C58.5781 322.6 58.5782 322.6 58.5783 322.6C59.4777 321.794 59.559 320.47 58.7607 319.588L58.756 319.583L58.7514 319.577C55.0045 315.193 51.3657 310.586 48.0559 305.868C47.0019 304.421 47.4165 302.474 48.8294 301.452L48.8367 301.446L48.8441 301.441L80.5211 280.216L80.5319 280.209L80.532 280.209C81.4974 279.598 81.7746 278.272 81.1494 277.292C81.149 277.292 81.1486 277.291 81.1482 277.29L81.5693 277.021C77.2798 270.457 73.7601 263.564 70.7904 256.343L67.5647 255.276ZM67.5647 255.276L67.5721 255.273C68.5998 254.847 69.8683 255.438 70.3287 256.535L67.5647 255.276Z" stroke="#191B87"/>
<path d="M213.181 331.074L213.181 331.075L232.319 412.583C232.319 412.583 232.319 412.583 232.319 412.584C232.586 413.737 231.874 414.888 230.717 415.155C216.563 418.21 202.08 419.848 187.707 420.066C186.429 420.064 185.461 419.07 185.46 417.941C185.46 417.941 185.46 417.94 185.46 417.94L185.57 334.244L185.57 334.243C185.57 333.099 186.554 332.117 187.71 332.117L187.717 332.117C195.45 332.007 203.073 331.128 210.694 329.48L210.701 329.478L210.709 329.477C211.745 329.219 212.911 329.911 213.181 331.074Z" stroke="#191B87"/>
<path d="M117.104 362.149L117.108 362.14L117.112 362.131L133.941 325.042L133.944 325.035L133.946 325.028C134.374 324.009 135.706 323.527 136.811 323.983C143.991 327.059 151.499 329.366 159.113 331.012C160.284 331.282 160.994 332.344 160.82 333.502L153.564 370.792C153.171 372.51 154.364 374.174 156.031 374.556L156.045 374.559L156.058 374.562C161.79 375.548 167.525 376.317 173.373 376.756C174.524 376.844 175.435 377.81 175.441 379.088L173.243 417.689C173.149 418.863 172.154 419.828 170.917 419.741L170.916 419.74C156.435 418.758 142.172 416.249 128.127 412.32C126.966 411.961 126.335 410.814 126.6 409.644L136.823 375.092C136.823 375.091 136.823 375.09 136.824 375.089C137.345 373.398 136.42 371.701 134.733 371.184C129.145 369.441 123.557 367.37 118.187 365.081C117.09 364.527 116.586 363.179 117.104 362.149Z" stroke="#191B87"/>
<path d="M336.168 356.869L336.16 356.877L336.153 356.884C335.372 357.748 333.943 357.776 333.028 356.866C333.027 356.866 333.027 356.866 333.027 356.865L273.633 297.567L273.633 297.566C272.839 296.777 272.839 295.344 273.633 294.555L273.633 294.555L273.64 294.548C278.938 289.058 283.796 283.019 287.993 276.538C288.621 275.653 289.87 275.297 290.952 275.921L362.434 320.115C362.435 320.116 362.435 320.116 362.436 320.117C363.417 320.739 363.78 322.076 363.155 323.151C355.366 335.263 346.26 346.611 336.168 356.869Z" stroke="#191B87"/>
<path d="M231.783 324.641C239.066 321.677 246.023 318.163 252.651 313.878C253.639 313.253 254.976 313.532 255.59 314.492L255.59 314.492L255.597 314.503L276.935 346.012L276.94 346.02L276.945 346.027C277.973 347.433 279.927 347.842 281.377 346.796C286.121 343.504 290.752 339.884 295.16 336.157L295.166 336.153L295.171 336.148C296.06 335.352 297.395 335.434 298.205 336.329C298.206 336.329 298.206 336.33 298.206 336.33L324.052 365.212L324.054 365.214C324.853 366.097 324.769 367.528 323.874 368.332C312.902 377.827 301.052 386.122 288.433 393.217L288.433 393.217L288.427 393.22C287.366 393.836 286.031 393.4 285.495 392.334L285.491 392.327L285.487 392.32L268.223 360.598C267.42 359.013 265.458 358.527 263.928 359.288L263.928 359.288L263.92 359.292C258.656 362.02 253.391 364.42 247.907 366.602L247.881 366.612L247.856 366.626C246.737 367.225 245.501 366.657 245.039 365.465C245.039 365.465 245.039 365.464 245.039 365.464L230.521 327.392L230.518 327.384L230.515 327.377C230.089 326.361 230.677 325.1 231.783 324.641ZM231.783 324.641C231.783 324.641 231.782 324.641 231.782 324.641L231.593 324.178M231.783 324.641C231.784 324.641 231.784 324.64 231.785 324.64L231.593 324.178M231.593 324.178C238.853 321.224 245.782 317.723 252.381 313.456L230.054 327.57C229.504 326.257 230.274 324.725 231.593 324.178Z" stroke="#191B87"/>
<path d="M306.72 182.435L306.719 182.436C305.54 182.706 304.851 183.764 305.114 184.899L305.115 184.905L305.115 184.905C306.772 192.486 307.656 200.069 307.767 207.761L307.767 207.769L307.767 207.769C307.767 208.912 308.75 209.894 309.906 209.894L309.907 209.894L394.048 210.004C394.048 210.004 394.049 210.004 394.049 210.004C395.19 210.004 396.186 209.037 396.188 207.772C395.968 193.475 394.323 179.069 391.251 164.991C390.984 163.845 389.828 163.131 388.662 163.398L306.72 182.435ZM306.72 182.435L388.661 163.399L306.72 182.435Z" stroke="#191B87"/>
<path d="M337.957 277.998L337.948 277.993L337.939 277.989L300.652 261.25L300.646 261.247L300.639 261.244C299.611 260.818 299.131 259.495 299.588 258.401C302.681 251.258 304.999 243.789 306.655 236.214C306.925 235.055 307.991 234.344 309.162 234.518L346.65 241.736C348.37 242.125 350.044 240.944 350.43 239.281L350.433 239.267L350.435 239.253C351.427 233.552 352.2 227.847 352.641 222.029C352.729 220.89 353.697 219.981 354.989 219.974L393.79 222.161C393.792 222.161 393.794 222.161 393.795 222.161C394.981 222.255 395.947 223.247 395.86 224.471L395.859 224.473C394.872 238.877 392.349 253.064 388.4 267.034C388.041 268.185 386.887 268.816 385.705 268.552L350.969 258.383C350.968 258.383 350.967 258.383 350.966 258.382C349.272 257.866 347.567 258.781 347.046 260.463C345.293 266.02 343.211 271.579 340.911 276.92C340.355 278.009 338.997 278.515 337.957 277.998Z" stroke="#191B87"/>
<path d="M251.264 105.194L251.264 105.194L251.267 105.19L295.7 34.079C295.7 34.0782 295.701 34.0774 295.701 34.0766C296.327 33.1022 297.674 32.7382 298.759 33.3619C310.935 41.1099 322.344 50.1675 332.656 60.207L332.664 60.2143L332.672 60.2213C333.538 60.9972 333.567 62.4135 332.653 63.323C332.653 63.3232 332.653 63.3234 332.652 63.3236L273.039 122.403L273.038 122.404C272.243 123.195 270.799 123.195 270.004 122.404L270.004 122.404L269.996 122.397C264.478 117.127 258.406 112.295 251.891 108.12C250.994 107.489 250.655 106.146 251.264 105.194Z" stroke="#191B87"/>
<path d="M303.13 165.287L303.122 165.29L303.115 165.293C302.087 165.719 300.819 165.129 300.359 164.032C297.379 156.787 293.846 149.867 289.538 143.274C288.912 142.294 289.19 140.968 290.155 140.357L290.161 140.353L290.167 140.35L321.844 119.015L321.851 119.01L321.858 119.005C323.271 117.983 323.685 116.036 322.631 114.589C319.321 109.871 315.683 105.264 311.936 100.879L311.931 100.874L311.926 100.869C311.128 99.9868 311.209 98.6633 312.108 97.8578C312.108 97.8575 312.109 97.8572 312.109 97.8569L341.144 72.1478L341.146 72.146C342.036 71.3493 343.48 71.4333 344.289 72.3248C353.834 83.2389 362.173 95.0263 369.305 107.578L369.309 107.584C369.925 108.635 369.491 109.96 368.417 110.494L368.41 110.498L368.403 110.501L336.513 127.675C334.921 128.472 334.429 130.427 335.197 131.954L335.197 131.954L335.2 131.961C337.942 137.198 340.355 142.434 342.549 147.889L342.549 147.889L342.553 147.901C343.095 149.157 342.473 150.399 341.398 150.848L303.13 165.287Z" stroke="#191B87"/>
<path d="M157.509 89.4924L157.509 89.4911L138.371 7.98319C138.371 7.9831 138.371 7.98301 138.371 7.98292C138.103 6.82935 138.816 5.67854 139.972 5.41136C154.126 2.35571 168.609 0.71855 182.983 0.499983C184.26 0.501753 185.229 1.49588 185.229 2.62512C185.229 2.62534 185.229 2.62555 185.229 2.62578L185.119 86.3225L185.119 86.3231C185.119 87.4668 184.135 88.4489 182.979 88.4489L182.972 88.449C175.239 88.5589 167.617 89.438 159.996 91.086L159.988 91.0876L159.981 91.0895C158.944 91.3473 157.779 90.655 157.509 89.4924Z" stroke="#191B87"/>
<path d="M253.586 58.4191L253.582 58.428L253.578 58.4371L236.749 95.5265L236.746 95.5331L236.743 95.5399C236.316 96.5596 234.984 97.0415 233.879 96.5851C226.699 93.5088 219.191 91.2027 211.576 89.5558C210.406 89.2858 209.695 88.2244 209.87 87.0659L217.126 49.7761C217.518 48.0587 216.325 46.3946 214.659 46.012L214.645 46.0089L214.631 46.0066C208.9 45.0199 203.165 44.2517 197.316 43.8126C196.166 43.7246 195.255 42.7587 195.249 41.4802L197.447 2.884C197.447 2.8824 197.447 2.8808 197.447 2.8792C197.54 1.70541 198.536 0.739899 199.773 0.827789L199.774 0.827896C214.255 1.81003 228.518 4.31977 242.563 8.24868C243.724 8.60694 244.354 9.75422 244.09 10.9242L233.867 45.4763C233.867 45.4773 233.866 45.4783 233.866 45.4792C233.345 47.1703 234.27 48.867 235.957 49.384C241.544 51.1277 247.133 53.1984 252.503 55.4871C253.599 56.0408 254.104 57.3897 253.586 58.4191Z" stroke="#191B87"/>
</svg>
