<svg width="177" height="68" viewBox="0 0 177 68" fill="white" xmlns="http://www.w3.org/2000/svg">
    <path d="M92.526 26.5772L89.7729 24.9847C93.7437 24.5954 95.9496 21.6935 95.9496 18.2784C95.9496 14.5626 93.4436 11.4661 88.8729 11.4661H78.4961V32.611H82.9786V25.0377H86.7728L90.92 32.611H96.0731L92.526 26.5772ZM82.9786 21.1627V15.3235H88.2552C90.02 15.3235 91.3612 16.4913 91.3612 18.2431C91.3612 20.0125 90.0376 21.1627 88.2552 21.1627H82.9786Z"/>
    <path d="M103.432 10.7228C103.926 11.1121 104.173 11.6783 104.173 12.4392C104.173 13.1824 103.926 13.7486 103.432 14.1379C102.938 14.5272 102.338 14.7041 101.632 14.7041C100.944 14.7041 100.361 14.5095 99.8672 14.1379C99.373 13.7486 99.126 13.1824 99.126 12.4392C99.126 11.696 99.373 11.1298 99.8672 10.7228C100.361 10.3336 100.944 10.1389 101.632 10.1389C102.338 10.1212 102.938 10.3159 103.432 10.7228ZM103.75 32.6286H99.5319V16.7744H103.75V32.6286Z"/>
    <path d="M115.291 16.2966C110.773 16.2966 107.103 20.0656 107.103 24.7015C107.103 29.3375 110.773 33.1064 115.291 33.1064C119.809 33.1064 123.48 29.3375 123.48 24.7015C123.48 20.0656 119.809 16.2966 115.291 16.2966ZM115.291 29.3552C112.944 29.3552 111.038 27.2672 111.038 24.7015C111.038 22.1358 112.944 20.0479 115.291 20.0479C117.638 20.0479 119.544 22.1358 119.544 24.7015C119.544 27.2672 117.638 29.3552 115.291 29.3552Z"/>
    <path d="M92.6146 39.4057H82.8202V44.1832H91.2558V47.9875H82.8202V52.942H92.6146V56.7994H78.3906V35.6367H92.6146V39.4057Z"/>
    <path d="M95.8975 40.945H98.7564L99.427 43.2807H99.5858C100.327 42.3252 101.121 41.6351 101.968 41.1574C102.815 40.6973 103.804 40.4673 104.951 40.4673C106.663 40.4673 108.004 40.945 108.957 41.8828C109.927 42.8383 110.404 44.1654 110.404 45.8995V56.7993H106.186V47.2797C106.186 46.2711 105.992 45.5633 105.621 45.1563C105.233 44.7494 104.704 44.537 103.998 44.537C102.533 44.537 101.245 45.3333 100.133 46.9258V56.7993H95.9151V40.945H95.8975Z"/>
    <path d="M126.428 52.4463L127.998 55.189C126.234 56.5869 124.028 57.277 121.363 57.277C119.81 57.277 118.433 56.9761 117.216 56.3568C115.998 55.7375 115.045 54.8174 114.339 53.5611C113.633 52.3048 113.28 50.7654 113.28 48.9428C113.28 47.2619 113.598 45.7932 114.251 44.5192C114.886 43.2452 115.804 42.2543 116.969 41.5465C118.133 40.8388 119.475 40.4849 121.01 40.4849C122.581 40.4849 123.886 40.8211 124.963 41.5111C126.022 42.2012 126.834 43.1036 127.363 44.2361C127.893 45.3685 128.157 46.5895 128.157 47.9166C128.157 48.7836 128.087 49.5445 127.945 50.1815H117.516C117.922 52.6941 119.369 53.9681 121.892 53.9681C123.604 53.9504 125.122 53.4549 126.428 52.4463ZM117.48 47.4565H124.292C124.257 46.2356 123.957 45.2801 123.41 44.6254C122.863 43.9707 122.086 43.6345 121.081 43.6345C118.963 43.6345 117.763 44.9085 117.48 47.4565Z"/>
    <path d="M131.316 40.9452H134.564L135.234 43.2985H135.322C135.764 42.2722 136.293 41.5468 136.928 41.1044C137.546 40.6797 138.27 40.4497 139.099 40.4497C139.875 40.4497 140.564 40.6267 141.146 40.9628L140.387 44.7672C139.84 44.5194 139.328 44.4133 138.852 44.4133C138.128 44.4133 137.493 44.6787 136.946 45.1918C136.399 45.705 135.94 46.5366 135.569 47.6868V56.7994H131.316V40.9452Z"/>
    <path d="M151.734 40.9981C152.493 41.352 153.129 41.8121 153.605 42.396H153.764L154.523 40.9096H157.382V55.7553C157.382 58.3741 156.658 60.3028 155.211 61.5591C153.764 62.8155 151.787 63.4348 149.264 63.4348C148.081 63.4348 146.934 63.2578 145.858 62.9216C144.781 62.5854 143.864 62.1431 143.14 61.5945L144.587 58.4803C145.187 58.9227 145.893 59.2589 146.705 59.5066C147.517 59.7543 148.346 59.8605 149.211 59.8605C150.481 59.8605 151.47 59.5774 152.211 59.0288C152.952 58.4803 153.305 57.5956 153.305 56.41V54.676C152.176 55.72 150.799 56.2508 149.14 56.2508C147.781 56.2508 146.546 55.95 145.47 55.3307C144.393 54.7114 143.564 53.8266 142.946 52.6411C142.346 51.4556 142.046 50.0754 142.046 48.4829C142.046 46.7842 142.364 45.3333 143.034 44.13C143.687 42.9268 144.552 42.0067 145.646 41.3874C146.722 40.7681 147.905 40.4673 149.14 40.4673C150.093 40.4673 150.958 40.6442 151.734 40.9981ZM147.393 45.4041C146.687 46.1118 146.334 47.1204 146.334 48.4298C146.334 49.7215 146.652 50.7124 147.323 51.4202C147.975 52.128 148.84 52.4819 149.899 52.4819C151.311 52.4819 152.405 51.9156 153.182 50.7832V45.7049C152.317 44.8024 151.276 44.3424 150.076 44.3424C148.981 44.3424 148.081 44.6963 147.393 45.4041Z"/>
    <path d="M176.476 40.9274L170.441 57.8256C169.77 59.6836 168.941 61.046 167.935 61.9131C166.929 62.7978 165.641 63.2225 164.07 63.2225C163.258 63.2225 162.605 63.1694 162.058 63.0809C161.529 62.9924 160.946 62.8509 160.293 62.6739L161.052 59.5066C161.882 59.7543 162.658 59.8605 163.382 59.8605C163.911 59.8605 164.388 59.6836 164.846 59.3474C165.305 59.0112 165.658 58.5157 165.923 57.861L166.17 57.2948L159.693 40.9097H164.088L168.217 52.7827L171.923 40.9097H176.476V40.9274Z"/>
    <path d="M44.4372 16.969L51.5668 5.46758C51.6903 5.27294 51.9551 5.20216 52.1668 5.32602C54.1257 6.58233 55.9611 8.05098 57.62 9.67887C57.7964 9.83812 57.7964 10.1212 57.62 10.2982L48.0549 19.8532C47.8961 20.0125 47.6137 20.0125 47.4549 19.8532C46.5725 19.0039 45.6019 18.2253 44.5607 17.5529C44.3842 17.4291 44.3136 17.1813 44.4372 16.969Z"/>
    <path d="M58.9961 24.4715L52.8547 26.8072C52.6429 26.8956 52.3959 26.7718 52.3076 26.5594C51.8312 25.3916 51.2664 24.2768 50.5782 23.2152C50.4546 23.0205 50.5076 22.7551 50.7017 22.6313L55.7842 19.1985C55.9783 19.057 56.0313 18.7916 55.8901 18.5969C55.3607 17.836 54.7783 17.0929 54.1783 16.3851C54.0195 16.2082 54.0371 15.9427 54.2136 15.7835L58.8726 11.6253C59.049 11.466 59.3314 11.4837 59.4902 11.6607C61.0256 13.4301 62.3668 15.3411 63.5139 17.376C63.6374 17.5883 63.5492 17.8537 63.3374 17.9599L58.2196 20.7379C58.0078 20.8441 57.9372 21.1095 58.0431 21.3219C58.4843 22.1712 58.8726 23.0205 59.2255 23.9053C59.3314 24.1353 59.2079 24.383 58.9961 24.4715Z"/>
    <path d="M29.3484 14.4918L26.2777 1.30939C26.2248 1.07937 26.366 0.849336 26.5954 0.796253C28.8719 0.300807 31.2014 0.0176945 33.5309 0C33.778 0 33.9721 0.19464 33.9721 0.424668L33.9544 13.961C33.9544 14.191 33.7603 14.3856 33.5309 14.3856C32.2956 14.4033 31.0779 14.5449 29.8602 14.8103C29.6308 14.8634 29.4014 14.7218 29.3484 14.4918Z"/>
    <path d="M44.9134 9.48429L42.2133 15.4827C42.1251 15.6951 41.8604 15.7835 41.6486 15.6951C40.5015 15.1996 39.3015 14.828 38.0838 14.5626C37.8544 14.5095 37.7132 14.2972 37.7485 14.0672L38.9132 8.03334C38.9662 7.80332 38.8074 7.57329 38.5779 7.5202C37.6603 7.36095 36.7426 7.23709 35.8073 7.16631C35.5778 7.14862 35.4014 6.95398 35.4014 6.70626L35.7543 0.460095C35.772 0.230066 35.9661 0.0354265 36.2132 0.053121C38.5426 0.212372 40.8368 0.619345 43.0957 1.25635C43.3251 1.32713 43.4487 1.55715 43.3957 1.78718L41.7545 7.37865C41.6839 7.60868 41.8075 7.8387 42.0369 7.90948C42.9369 8.19259 43.8369 8.52879 44.7017 8.90037C44.9311 9.00654 45.0193 9.27196 44.9134 9.48429Z"/>
    <path d="M16.9236 23.4629L5.45264 16.3144C5.25851 16.1905 5.18792 15.9251 5.31146 15.7127C6.56444 13.7486 8.02919 11.9084 9.65277 10.2451C9.8116 10.0682 10.094 10.0682 10.2704 10.2451L19.8002 19.8356C19.959 19.9948 19.959 20.2779 19.8002 20.4372C18.9531 21.3219 18.1766 22.2951 17.506 23.3391C17.3824 23.516 17.1177 23.5868 16.9236 23.4629Z"/>
    <path d="M24.4065 8.86497L26.736 15.0227C26.8242 15.235 26.7007 15.4827 26.4889 15.5712C25.3241 16.0489 24.2123 16.6152 23.1535 17.3052C22.9594 17.4291 22.6947 17.376 22.5711 17.1814L19.1475 12.0854C19.0063 11.8907 18.7416 11.8376 18.5475 11.9792C17.7886 12.51 17.0474 13.094 16.3415 13.6956C16.165 13.8548 15.9003 13.8371 15.7415 13.6602L11.5766 8.98883C11.4178 8.81189 11.4355 8.52877 11.6119 8.36952C13.3767 6.8301 15.2826 5.48532 17.3121 4.33518C17.5239 4.21132 17.7886 4.29979 17.8945 4.51212L20.6652 9.64353C20.7711 9.85586 21.0358 9.92664 21.2475 9.82047C22.0946 9.37811 22.9417 8.98883 23.8241 8.63494C24.0712 8.52877 24.3182 8.65264 24.4065 8.86497Z"/>
    <path d="M23.4011 51.031L16.2714 62.5324C16.1479 62.7271 15.8832 62.7978 15.6714 62.674C13.7125 61.4177 11.8772 59.949 10.2183 58.3211C10.0418 58.1619 10.0418 57.8788 10.2183 57.7018L19.7833 48.1468C19.9421 47.9875 20.2245 47.9875 20.3833 48.1468C21.2657 48.9961 22.2363 49.7747 23.2775 50.4471C23.454 50.5709 23.5246 50.8186 23.4011 51.031Z"/>
    <path d="M8.85941 43.5285L15.0008 41.1928C15.2126 41.1044 15.4596 41.2282 15.5479 41.4405C16.0243 42.6084 16.5891 43.7231 17.2773 44.7848C17.4009 44.9795 17.3479 45.2449 17.1538 45.3687L12.0713 48.8015C11.8772 48.943 11.8242 49.2084 11.9654 49.4031C12.4948 50.1639 13.0772 50.9071 13.6772 51.6149C13.836 51.7918 13.8184 52.0573 13.6419 52.2165L8.98294 56.3747C8.80647 56.534 8.52411 56.5163 8.36528 56.3393C6.82993 54.5699 5.48871 52.6589 4.34162 50.624C4.21809 50.4117 4.30632 50.1462 4.5181 50.0401L9.6359 47.262C9.84768 47.1559 9.91827 46.8905 9.81238 46.6781C9.37119 45.8288 8.98294 44.9794 8.62999 44.0947C8.50646 43.8647 8.62999 43.617 8.85941 43.5285Z"/>
    <path d="M38.4898 53.5081L41.5605 66.6906C41.6135 66.9206 41.4723 67.1506 41.2429 67.2037C38.9663 67.6991 36.6368 67.9646 34.325 67.9999C34.0779 67.9999 33.8838 67.8053 33.8838 67.5753L33.9014 54.0389C33.9014 53.8089 34.0956 53.6143 34.325 53.6143C35.5603 53.5966 36.778 53.455 37.9957 53.1896C38.2251 53.1365 38.4369 53.2781 38.4898 53.5081Z"/>
    <path d="M22.9244 58.5157L25.6244 52.5173C25.7127 52.3049 25.9774 52.2165 26.1892 52.3049C27.3363 52.8004 28.5363 53.172 29.754 53.4374C29.9834 53.4905 30.1246 53.7028 30.0893 53.9328L28.9245 59.9666C28.8716 60.1967 29.0304 60.4267 29.2598 60.4798C30.1775 60.639 31.0952 60.7629 32.0305 60.8337C32.2599 60.8514 32.4364 61.046 32.4364 61.2937L32.0835 67.5399C32.0658 67.7699 31.8717 67.9646 31.6246 67.9469C29.2951 67.7876 27.0009 67.3806 24.7421 66.7436C24.5126 66.6729 24.3891 66.4428 24.442 66.2128L26.0833 60.6213C26.1539 60.3913 26.0303 60.1613 25.8009 60.0905C24.9009 59.8074 24.0009 59.4712 23.1361 59.0996C22.9244 58.9935 22.8185 58.728 22.9244 58.5157Z"/>
    <path d="M50.9137 44.5371L62.3846 51.6856C62.5787 51.8095 62.6493 52.0749 62.5258 52.2873C61.2728 54.2513 59.8081 56.0916 58.1845 57.7548C58.0256 57.9318 57.7433 57.9318 57.5668 57.7548L48.0371 48.1644C47.8783 48.0052 47.8783 47.7221 48.0371 47.5628C48.8842 46.6781 49.6607 45.7049 50.3313 44.6609C50.4548 44.484 50.7195 44.4132 50.9137 44.5371Z"/>
    <path d="M43.4315 59.135L41.102 52.9773C41.0138 52.7649 41.1373 52.5172 41.3491 52.4287C42.5139 51.951 43.6257 51.3848 44.6845 50.6947C44.8786 50.5708 45.1434 50.6239 45.2669 50.8185L48.7082 55.9146C48.8494 56.1092 49.1141 56.1623 49.3082 56.0207C50.067 55.4899 50.8082 54.906 51.5141 54.3044C51.6906 54.1451 51.9553 54.1628 52.1142 54.3398L56.2613 59.0111C56.4202 59.188 56.4025 59.4712 56.2261 59.6304C54.4613 61.1698 52.5553 62.5146 50.5259 63.6648C50.3141 63.7886 50.0494 63.7001 49.9435 63.4878L47.1728 58.3564C47.0669 58.1441 46.8022 58.0733 46.5905 58.1795C45.7434 58.6218 44.8963 59.0111 44.0139 59.365C43.7668 59.4712 43.5198 59.3473 43.4315 59.135Z"/>
    <path d="M53.3844 29.4436L66.5319 26.3648C66.7613 26.3117 66.9907 26.4533 67.0437 26.6833C67.5378 28.9659 67.8025 31.3016 67.8378 33.6195C67.8378 33.8673 67.6437 34.0619 67.4143 34.0619L53.9139 34.0442C53.6844 34.0442 53.4903 33.8496 53.4903 33.6195C53.4727 32.3809 53.3315 31.16 53.0668 29.9391C53.0138 29.7267 53.155 29.4967 53.3844 29.4436Z"/>
    <path d="M58.3787 45.0502L52.3961 42.3429C52.1844 42.2544 52.0961 41.989 52.1844 41.7767C52.6785 40.6265 53.0491 39.4233 53.3138 38.2024C53.3667 37.9724 53.5785 37.8308 53.8079 37.8662L59.8258 39.034C60.0552 39.0871 60.2846 38.9279 60.3376 38.6978C60.4964 37.7777 60.6199 36.8576 60.6905 35.9198C60.7082 35.6898 60.9023 35.5128 61.1494 35.5128L67.379 35.8667C67.6084 35.8844 67.8025 36.079 67.7849 36.3268C67.626 38.6624 67.2201 40.9627 66.5848 43.2276C66.5142 43.4577 66.2848 43.5815 66.0554 43.5284L60.4787 41.8829C60.2493 41.8121 60.0199 41.9359 59.9493 42.166C59.667 43.0684 59.3316 43.9708 58.961 44.8378C58.8552 45.0502 58.5904 45.1563 58.3787 45.0502Z"/>
    <path d="M14.4534 38.5562L1.30592 41.6351C1.07651 41.6882 0.847086 41.5466 0.794143 41.3166C0.30001 39.034 0.0352953 36.6983 0 34.3804C0 34.1326 0.194124 33.938 0.423543 33.938L13.924 33.9557C14.1534 33.9557 14.3475 34.1503 14.3475 34.3804C14.3652 35.619 14.5063 36.8399 14.7711 38.0608C14.824 38.2731 14.6828 38.5032 14.4534 38.5562Z"/>
    <path d="M9.46101 22.9497L15.4436 25.657C15.6553 25.7455 15.7436 26.0109 15.6553 26.2232C15.1612 27.3734 14.7906 28.5766 14.5259 29.7975C14.4729 30.0275 14.2612 30.1691 14.0317 30.1337L8.01391 28.9659C7.78449 28.9128 7.55507 29.072 7.50213 29.3021C7.3433 30.2222 7.21977 31.1423 7.14917 32.0801C7.13153 32.3101 6.9374 32.4871 6.69034 32.4871L0.460723 32.1332C0.231303 32.1155 0.0371794 31.9208 0.054827 31.6731C0.213656 29.3374 0.619551 27.0372 1.25487 24.7723C1.32546 24.5422 1.55488 24.4184 1.78429 24.4715L7.36095 26.117C7.59037 26.1878 7.81978 26.064 7.89038 25.8339C8.17274 24.9315 8.50804 24.0291 8.87864 23.1621C8.98453 22.9497 9.24924 22.8436 9.46101 22.9497Z"/>
</svg>
