<svg width="24" height="29" viewBox="0 0 24 29" fill="white" xmlns="http://www.w3.org/2000/svg">
  <path d="M21.255 23.701L1.92047 28.2287C1.58309 28.3067 1.24571 28.0986 1.16785 27.7603C0.44119 24.4035 0.0519046 20.9687 0 17.56C0 17.1957 0.285476 16.9094 0.622856 16.9094L20.4764 16.9354C20.8138 16.9354 21.0992 17.2217 21.0992 17.56C21.1252 19.3814 21.3328 21.1769 21.7221 22.9724C21.8 23.2846 21.5923 23.6229 21.255 23.701Z"/>
  <path d="M13.9133 0.750093L22.7112 4.73135C23.0226 4.86145 23.1524 5.25177 23.0226 5.56403C22.2959 7.25541 21.7509 9.02485 21.3617 10.8203C21.2838 11.1586 20.9724 11.3668 20.635 11.3147L11.7852 9.59732C11.4479 9.51926 11.1105 9.75345 11.0326 10.0917C10.7991 11.4448 10.6174 12.7979 10.5136 14.1771C10.4876 14.5153 10.2022 14.7756 9.83882 14.7756L0.677646 14.2551C0.340266 14.2291 0.0547905 13.9429 0.0807429 13.5786C0.314314 10.1438 0.911217 6.761 1.8455 3.43028C1.94931 3.09201 2.28669 2.90986 2.62407 2.98792L10.825 5.4079C11.1624 5.51199 11.4998 5.32984 11.6036 4.99156C12.0188 3.66447 12.5119 2.33739 13.0569 1.06235C13.2126 0.750092 13.6019 0.593965 13.9133 0.750093Z"/>
</svg>
