<svg  viewBox="0 0 70.2284 84.5646" fill="white" xmlns="http://www.w3.org/2000/svg">
  <path d="M64.696+70.7333L5.84553+84.5147C4.81861+84.7522+3.7917+84.1187+3.55471+83.089C1.3429+72.8716+0.157987+62.4167+0+52.0413C0+50.9325+0.868933+50.061+1.89585+50.061L62.3261+50.1402C63.3531+50.1402+64.2218+51.0116+64.2218+52.0413C64.3009+57.5853+64.9328+63.0505+66.1178+68.5156C66.3549+69.4659+65.7227+70.4956+64.696+70.7333Z"/>
  <path d="M42.3493+0.875276L69.1284+12.9934C70.0763+13.3894+70.4713+14.5775+70.0763+15.528C67.8643+20.6762+66.2055+26.062+65.0208+31.527C64.7837+32.5567+63.8359+33.1904+62.8089+33.0319L35.8718+27.8045C34.8452+27.5669+33.8182+28.2797+33.5811+29.3093C32.8703+33.4279+32.3173+37.5464+32.0013+41.7444C31.9222+42.7739+31.0535+43.5662+29.9474+43.5662L2.06262+41.9819C1.0357+41.9027+0.166771+41.0316+0.245765+39.9227C0.95671+29.4679+2.77356+19.1713+5.61734+9.03324C5.93332+8.00361+6.96023+7.44918+7.98715+7.68678L32.9492+15.0527C33.9761+15.3696+35.0031+14.8151+35.3191+13.7855C36.5829+9.74606+38.0838+5.70669+39.7426+1.82572C40.2166+0.875273+41.4015+0.400053+42.3493+0.875276Z"/>
</svg>
